<?xml version="1.0" encoding="UTF-8"?>
<svg version="1.1" xmlns="http://www.w3.org/2000/svg" width="48" height="48">
<path d="M0 0 C15.84 0 31.68 0 48 0 C48 15.84 48 31.68 48 48 C32.16 48 16.32 48 0 48 C0 32.16 0 16.32 0 0 Z " fill="#020202" transform="translate(0,0)"/>
<path d="M0 0 C-3.41804659 3.84530242 -6.50588961 5.96621616 -11.23046875 8.0078125 C-13.33659835 9.01256402 -13.33659835 9.01256402 -15 12 C-15.99 12.33 -16.98 12.66 -18 13 C-18.33 13.99 -18.66 14.98 -19 16 C-15.7 16 -12.4 16 -9 16 C-9 16.99 -9 17.98 -9 19 C-13.97677898 20.5402775 -18.77039648 21.50636739 -23.9375 22.125 C-24.62134766 22.21136719 -25.30519531 22.29773438 -26.00976562 22.38671875 C-27.67257046 22.59602285 -29.33620513 22.79871722 -31 23 C-31.33 21.68 -31.66 20.36 -32 19 C-29.87706098 17.18503664 -27.75177875 15.37295406 -25.625 13.5625 C-25.02171875 13.04623047 -24.4184375 12.52996094 -23.796875 11.99804688 C-19.2265625 8.11328125 -19.2265625 8.11328125 -17 7 C-18.98 6.01 -20.96 5.02 -23 4 C-17.73744727 -1.26255273 -7.00675881 -0.27358277 0 0 Z " fill="#E6E6E6" transform="translate(39,13)"/>
<path d="M0 0 C0.99 0.33 1.98 0.66 3 1 C1 3 -1 5 -3 7 C0.3 7.33 3.6 7.66 7 8 C5.68 9.32 4.36 10.64 3 12 C3 11.01 3 10.02 3 9 C-0.3 9 -3.6 9 -7 9 C-6.67 7.68 -6.34 6.36 -6 5 C-5.01 5 -4.02 5 -3 5 C-2.690625 4.360625 -2.38125 3.72125 -2.0625 3.0625 C-1 1 -1 1 0 0 Z " fill="#616161" transform="translate(27,20)"/>
<path d="M0 0 C0.66 0.33 1.32 0.66 2 1 C-0.97 3.97 -3.94 6.94 -7 10 C-7.33 9.01 -7.66 8.02 -8 7 C-5.36 4.69 -2.72 2.38 0 0 Z " fill="#DADADA" transform="translate(15,25)"/>
</svg>
